# xmcd
#
# Track frame offsets:
# 150
# 45218
# 86261
# 105095
# 132302
# 193862
# 204496
# 229726
# 261230
#
# Disc length: 4047 seconds
#
#
# Revision: 0
# Processed by: cddbd v1.5PL3 Copyright (c) Steve Scherf et al.
# Submitted via: FreeRIP 2.70 
#
DISCID=6b0fcd09
DTITLE=Big Joe Turner and the Memphis Blues Caravan - Blues in Chedigny
DYEAR=1999
DGENRE=Blues
TTITLE0=B.J.
TTITLE1=Put It Where You Want
TTITLE2=Rock Your Town
TTITLE3=Yonders Wall
TTITLE4=I am The Blues
TTITLE5=Ain't That Lovin You
TTITLE6=Wait On Time
TTITLE7=Outskirts of Town
TTITLE8=Every Day I Have The Blues
EXTD=
EXTT0=
EXTT1=
EXTT2=
EXTT3=
EXTT4=
EXTT5=
EXTT6=
EXTT7=
EXTT8=
PLAYORDER=
